<mxfile host="app.diagrams.net" modified="2024-05-23T08:57:07.179Z" agent="Mozilla/5.0 (Windows NT 10.0; Win64; x64) AppleWebKit/537.36 (KHTML, like Gecko) Chrome/124.0.0.0 Safari/537.36" version="24.4.4" etag="fu-prT8aFdcOnop030vG" type="github">
  <diagram name="Page-1" id="t_l1vbiUvPaP5-XY0baG">
    <mxGraphModel>
      <root>
        <mxCell id="0" />
        <mxCell id="1" parent="0" />
      </root>
    </mxGraphModel>
  </diagram>
</mxfile>
